<svg width="14" height="15" viewBox="0 0 14 15" fill="none" xmlns="http://www.w3.org/2000/svg">
<path d="M1 6.36377C0.447715 6.36377 0 6.81148 0 7.36377C0 7.91605 0.447715 8.36377 1 8.36377L1 7.36377L1 6.36377ZM13.2071 8.07088C13.5976 7.68035 13.5976 7.04719 13.2071 6.65666L6.84315 0.292702C6.45262 -0.0978227 5.81946 -0.0978227 5.42893 0.292702C5.03841 0.683226 5.03841 1.31639 5.42893 1.70692L11.0858 7.36377L5.42893 13.0206C5.03841 13.4111 5.03841 14.0443 5.42893 14.4348C5.81946 14.8254 6.45262 14.8254 6.84315 14.4348L13.2071 8.07088ZM1 7.36377L1 8.36377L12.5 8.36377V7.36377V6.36377L1 6.36377L1 7.36377Z" fill="#ECEDEE"/>
</svg>
