<svg width="24" height="24" viewBox="0 0 24 24" fill="none" xmlns="http://www.w3.org/2000/svg">
<path fill-rule="evenodd" clip-rule="evenodd" d="M17.9885 16.7914L24 22.7683L22.7609 24L16.7362 18.0115C14.7018 19.679 12.0981 20.5011 9.46856 20.3063C6.839 20.1116 4.3867 18.9149 2.62341 16.9661C0.860127 15.0174 -0.0779043 12.467 0.00507059 9.84729C0.0880455 7.22758 1.18562 4.74093 3.06873 2.90626C4.95185 1.07158 7.47503 0.030644 10.1117 0.000665853C12.7484 -0.0293123 15.2949 0.953987 17.2197 2.74536C19.1445 4.53674 20.299 6.99779 20.4423 9.61492C20.5855 12.2321 19.7064 14.8031 17.9885 16.7914ZM18.7045 10.1668C18.7045 7.93251 17.8115 5.78976 16.2221 4.20991C14.6327 2.63005 12.477 1.74249 10.2293 1.74249C7.98149 1.74249 5.82579 2.63005 4.23638 4.20991C2.64698 5.78976 1.75406 7.93251 1.75406 10.1668C1.75406 12.401 2.64698 14.5438 4.23638 16.1236C5.82579 17.7035 7.98149 18.591 10.2293 18.591C12.477 18.591 14.6327 17.7035 16.2221 16.1236C17.8115 14.5438 18.7045 12.401 18.7045 10.1668Z" fill="#F5F6F6"/>
</svg>
