<svg width="22" height="95" viewBox="0 0 22 95" fill="none" xmlns="http://www.w3.org/2000/svg">
<path fill-rule="evenodd" clip-rule="evenodd" d="M20.1667 3.65385C19.1541 3.65385 18.3333 2.8359 18.3333 1.82692C18.3333 0.817941 19.1541 0 20.1667 0C21.1792 0 22 0.817941 22 1.82692C22 2.8359 21.1792 3.65385 20.1667 3.65385ZM20.1667 21.9231C19.1541 21.9231 18.3333 21.1051 18.3333 20.0962C18.3333 19.0872 19.1541 18.2692 20.1667 18.2692C21.1792 18.2692 22 19.0872 22 20.0962C22 21.1051 21.1792 21.9231 20.1667 21.9231ZM18.3333 38.3654C18.3333 39.3744 19.1541 40.1923 20.1667 40.1923C21.1792 40.1923 22 39.3744 22 38.3654C22 37.3564 21.1792 36.5385 20.1667 36.5385C19.1541 36.5385 18.3333 37.3564 18.3333 38.3654ZM20.1667 58.4615C19.1541 58.4615 18.3333 57.6436 18.3333 56.6346C18.3333 55.6256 19.1541 54.8077 20.1667 54.8077C21.1792 54.8077 22 55.6256 22 56.6346C22 57.6436 21.1792 58.4615 20.1667 58.4615ZM18.3333 74.9038C18.3333 75.9128 19.1541 76.7308 20.1667 76.7308C21.1792 76.7308 22 75.9128 22 74.9038C22 73.8949 21.1792 73.0769 20.1667 73.0769C19.1541 73.0769 18.3333 73.8949 18.3333 74.9038ZM20.1667 95C19.1541 95 18.3333 94.1821 18.3333 93.1731C18.3333 92.1641 19.1541 91.3462 20.1667 91.3462C21.1792 91.3462 22 92.1641 22 93.1731C22 94.1821 21.1792 95 20.1667 95ZM0 1.82692C0 2.8359 0.82081 3.65385 1.83333 3.65385C2.84586 3.65385 3.66667 2.8359 3.66667 1.82692C3.66667 0.817941 2.84586 0 1.83333 0C0.82081 0 0 0.817941 0 1.82692ZM1.83333 21.9231C0.82081 21.9231 0 21.1051 0 20.0962C0 19.0872 0.82081 18.2692 1.83333 18.2692C2.84586 18.2692 3.66667 19.0872 3.66667 20.0962C3.66667 21.1051 2.84586 21.9231 1.83333 21.9231ZM0 38.3654C0 39.3744 0.82081 40.1923 1.83333 40.1923C2.84586 40.1923 3.66667 39.3744 3.66667 38.3654C3.66667 37.3564 2.84586 36.5385 1.83333 36.5385C0.82081 36.5385 0 37.3564 0 38.3654ZM1.83333 58.4615C0.82081 58.4615 0 57.6436 0 56.6346C0 55.6256 0.82081 54.8077 1.83333 54.8077C2.84586 54.8077 3.66667 55.6256 3.66667 56.6346C3.66667 57.6436 2.84586 58.4615 1.83333 58.4615ZM0 74.9038C0 75.9128 0.82081 76.7308 1.83333 76.7308C2.84586 76.7308 3.66667 75.9128 3.66667 74.9038C3.66667 73.8949 2.84586 73.0769 1.83333 73.0769C0.82081 73.0769 0 73.8949 0 74.9038ZM1.83333 95C0.82081 95 0 94.1821 0 93.1731C0 92.1641 0.82081 91.3462 1.83333 91.3462C2.84586 91.3462 3.66667 92.1641 3.66667 93.1731C3.66667 94.1821 2.84586 95 1.83333 95Z" fill="#B4B6BB"/>
</svg>
