<svg width="32" height="58" viewBox="0 0 32 58" fill="none" xmlns="http://www.w3.org/2000/svg">
<path fill-rule="evenodd" clip-rule="evenodd" d="M0.353596 66.03L-1.01743e-06 66.724L0.353596 67.4179L11.4229 89.1419C11.8135 89.9084 12.7634 90.2191 13.5445 89.8358C14.3257 89.4526 14.6423 88.5205 14.2517 87.754L3.53597 66.724L14.2517 45.6939L14.6053 45L14.2517 44.306L3.53597 23.276L14.2517 2.24599C14.6423 1.47948 14.3257 0.547416 13.5445 0.164153C12.7634 -0.219102 11.8135 0.0915904 11.4229 0.858108L0.353594 22.5821L-2.9166e-06 23.276L0.353594 23.97L11.0693 45L0.353596 66.03ZM17.7483 66.03L17.3947 66.724L17.7483 67.4179L28.8176 89.1419C29.2082 89.9084 30.1581 90.2191 30.9392 89.8358C31.7204 89.4526 32.037 88.5205 31.6464 87.754L20.9307 66.724L31.6464 45.6939L32 45L31.6464 44.306L20.9307 23.276L31.6464 2.24599C32.037 1.47948 31.7204 0.547415 30.9392 0.164153C30.1581 -0.219102 29.2082 0.0915896 28.8176 0.858107L17.7483 22.5821L17.3947 23.276L17.7483 23.97L28.464 45L17.7483 66.03Z" fill="#DC1414" fill-opacity="0.6"/>
</svg>
