<svg width="126" height="48" viewBox="0 0 126 48" fill="none" xmlns="http://www.w3.org/2000/svg">
<path d="M0.728477 0.0084129C6.73937 -0.0937976 12.4924 0.750107 18.4074 1.7354C19.242 1.87277 19.242 1.87277 20.0934 2.01292C31.1974 3.88154 41.2731 7.21224 51.6291 11.6428C51.6291 12.1228 51.6291 12.6027 51.6291 13.0971C47.3101 14.6129 42.9901 16.126 38.6696 17.6374C37.2026 18.1509 35.7357 18.6651 34.2691 19.1798C32.1504 19.9232 30.031 20.6645 27.9115 21.4054C27.265 21.6327 26.6186 21.8601 25.9526 22.0943C21.6981 23.5786 17.4164 24.9263 13.0901 26.1859C9.54621 19.5646 6.00683 12.9457 2.81904 6.14376C2.49768 5.46316 2.49768 5.46316 2.16982 4.76881C0.728477 1.64714 0.728477 1.64714 0.728477 0.0084129Z" fill="#FC0000"/>
<path d="M6.54437 18.1871C7.65649 20.0479 8.49844 21.7049 9.31663 23.6862C9.543 24.2032 9.76937 24.7201 10.0026 25.2527C10.5589 26.528 11.0983 27.8106 11.6344 29.0944C12.4046 28.8339 13.1747 28.5734 13.9682 28.305C16.8373 27.3354 19.7079 26.3702 22.579 25.4063C23.8192 24.9892 25.0591 24.571 26.2985 24.1515C28.0845 23.5473 29.8718 22.9475 31.6595 22.3484C32.2096 22.1613 32.7597 21.9742 33.3264 21.7814C36.2668 20.8009 39.0886 20.0534 42.1748 19.6414C41.0538 22.7259 38.7542 24.2863 36.2212 26.1858C35.3071 26.8868 34.3935 27.5884 33.4802 28.2906C32.7637 28.8384 32.7637 28.8384 32.0327 29.3973C29.4783 31.3682 26.9656 33.391 24.4505 35.4115C23.5207 36.1567 22.591 36.9019 21.6612 37.647C20.9919 38.1841 20.3226 38.7212 19.6331 39.2745C16.6137 38.1182 14.7774 35.9021 12.6797 33.5482C12.3036 33.1333 11.9275 32.7183 11.54 32.2908C10.7541 31.4236 9.96976 30.555 9.18704 29.6849C7.29003 27.5816 5.37077 25.4988 3.45397 23.4135C2.30215 22.1566 1.15109 20.899 0 19.6414C1.40362 16.8342 3.97418 17.1441 6.54437 18.1871Z" fill="#1777BB"/>
<path d="M43.63 22.5508C43.9899 23.6306 43.9899 23.6306 44.3572 24.7322C43.6091 26.1097 43.6091 26.1097 42.4313 27.6607C42.0028 28.2331 41.5743 28.8055 41.1327 29.3952C40.667 30.001 40.2014 30.6069 39.7216 31.2312C39.2554 31.8483 38.7893 32.4654 38.309 33.1012C37.3714 34.3419 36.4312 35.5806 35.4882 36.8172C34.3466 38.3242 33.2256 39.8425 32.1177 41.3744C31.8233 41.7789 31.5288 42.1834 31.2255 42.6002C30.4557 43.6593 29.6875 44.7195 28.9194 45.7799C27.6327 47.2739 27.6327 47.2739 25.4512 48.0011C23.6475 47.1177 23.6475 47.1177 21.6791 45.8651C21.0239 45.4536 20.3687 45.0421 19.6936 44.6181C19.194 44.2948 18.6944 43.9714 18.1797 43.6382C21.1406 40.5558 24.3246 37.8423 27.6327 35.1396C28.1725 34.6966 28.7124 34.2536 29.2686 33.7971C33.9799 29.9479 38.7744 26.2157 43.63 22.5508Z" fill="#7E04B3"/>
<path d="M7.90305 32.057C10.1318 33.0244 11.485 34.5011 13.1806 36.2296C14.1282 37.1814 14.1282 37.1814 15.095 38.1525C16.4857 39.7297 17.3819 40.9874 18.1798 42.9103C14.6062 41.8657 11.6337 40.335 8.4541 38.4565C7.98824 38.1856 7.52238 37.9147 7.0424 37.6356C5.90508 36.9735 4.7706 36.3066 3.63672 35.6387C4.42774 33.2657 5.18354 31.9489 7.90305 32.057Z" fill="#7E04B3"/>
<path d="M77.0953 15.9443C77.0953 18.8612 77.0954 21.7776 77.0948 24.6945C77.0948 24.9095 77.097 25.1257 77.0798 25.3403C77.0653 25.5212 77.0347 25.7016 76.9943 25.8789C76.9108 26.2413 76.6677 26.446 76.3116 26.5166C75.9596 26.5865 75.4127 26.4165 75.2966 25.8551C75.2463 25.613 75.223 25.3637 75.2069 25.1164C75.1909 24.8686 75.197 24.6193 75.197 24.3709C75.1981 22.1171 75.2002 19.8632 75.2012 17.6098C75.2012 17.4445 75.197 17.2786 75.1929 17.1132C75.1914 17.051 75.1302 16.9961 75.0633 16.9925C75.0136 16.9898 74.9643 16.9862 74.9145 16.9857C74.7984 16.9847 74.6823 16.9852 74.5668 16.9852C69.7111 16.9852 64.8555 16.9852 59.9999 16.9852C59.8672 16.9852 59.7345 16.9852 59.6023 16.9877C59.4784 16.9909 59.412 17.0474 59.4059 17.1609C59.3944 17.376 59.3809 17.5911 59.3809 17.8063C59.3789 18.9167 59.3809 20.027 59.382 21.1374C59.383 22.2809 59.3845 23.4244 59.3845 24.5679C59.3845 24.7997 59.3867 25.0324 59.3721 25.2636C59.3607 25.4445 59.3302 25.6249 59.2995 25.8043C59.2042 26.3569 58.6754 26.5875 58.2157 26.5025C58.1669 26.4937 58.1192 26.4782 58.071 26.4657C57.901 26.4206 57.7735 26.3164 57.6952 26.1635C57.6434 26.0619 57.6081 25.9489 57.5833 25.837C57.5179 25.5446 57.5034 25.2475 57.5039 24.9479C57.5065 23.0424 57.5039 21.1364 57.5054 19.2308C57.5081 15.1377 57.5117 11.0441 57.5153 6.951C57.5153 6.71926 57.5044 6.4855 57.5734 6.26001C57.6071 6.15012 57.6408 6.03607 57.6994 5.93862C57.8886 5.62552 58.183 5.4866 58.5386 5.51044C58.8807 5.53377 59.1228 5.72712 59.2628 6.0397C59.3307 6.19107 59.3794 6.35021 59.384 6.51868C59.3903 6.7338 59.3981 6.94948 59.3976 7.16457C59.3934 9.55115 59.3882 11.9372 59.3835 14.3238C59.3835 14.4732 59.3825 14.6219 59.3856 14.7712C59.3887 14.9454 59.4405 14.9993 59.6292 15.006C60.4405 15.035 61.2523 15.0708 62.064 15.0854C63.0915 15.1045 64.1189 15.1134 65.1463 15.1134C67.8476 15.1134 70.5488 15.1097 73.25 15.1009C73.7798 15.0993 74.3096 15.0693 74.8394 15.0491C74.9213 15.0459 75.0027 15.0262 75.084 15.0148C75.1452 15.006 75.1696 14.9521 75.1727 14.9091C75.1867 14.6779 75.1981 14.4457 75.1992 14.2139C75.2038 12.6894 75.2059 11.1648 75.2085 9.63979C75.2101 8.69537 75.2106 7.75087 75.2121 6.80587C75.2121 6.62393 75.2121 6.44248 75.2634 6.26364C75.3614 5.92255 75.5718 5.68772 75.8974 5.54673C76.1711 5.42854 76.4163 5.48712 76.6465 5.64885C76.8896 5.8194 77.0238 6.06303 77.0741 6.35124C77.0938 6.46477 77.0964 6.5819 77.099 6.69803C77.1031 6.87996 77.1016 7.06248 77.1016 7.24492C77.1016 10.1452 77.1016 13.045 77.1016 15.9453H77.0969L77.0953 15.9443Z" fill="white"/>
<path d="M87.4313 5.49609C89.2216 5.50231 91.0118 5.50594 92.8014 5.51786C93.2326 5.52098 93.6638 5.54171 94.0928 5.57333C94.6221 5.6122 95.1464 5.69411 95.6489 5.87503C96.2648 6.09637 96.8174 6.42606 97.2901 6.87914C97.9183 7.48042 98.4295 8.1699 98.812 8.95261C99.1814 9.71045 99.3719 10.5113 99.337 11.3553C99.3086 12.0395 99.1479 12.6994 98.8731 13.3277C98.1183 15.0533 96.8509 16.2062 95.0359 16.7412C94.5385 16.8879 94.0302 16.9439 93.5147 16.9428C93.0835 16.9418 92.6523 16.9304 92.2218 16.9314C89.3205 16.9371 86.4206 16.9449 83.5197 16.9516C83.2211 16.9522 82.923 16.9527 82.6244 16.9538C82.5581 16.9538 82.4922 16.9584 82.4259 16.9609C82.3787 16.9625 82.2916 17.0454 82.2911 17.0911C82.288 17.257 82.2833 17.4223 82.2833 17.5882C82.2818 19.9754 82.2818 22.3619 82.2787 24.749C82.2787 25.0305 82.2667 25.3125 82.2585 25.594C82.2533 25.7614 82.2144 25.9232 82.1501 26.0766C82.0698 26.2694 81.9319 26.4027 81.7266 26.4664C81.5141 26.5322 81.3057 26.5332 81.0916 26.4711C80.8319 26.3959 80.6603 26.2326 80.5685 25.9838C80.5115 25.8283 80.468 25.6676 80.466 25.4997C80.4638 25.3503 80.4607 25.2015 80.4607 25.0523C80.4607 22.2344 80.4618 19.4165 80.4628 16.5986C80.4628 16.4162 80.466 16.2342 80.469 16.0517C80.4716 15.918 80.5022 15.7905 80.5463 15.6635C80.623 15.4421 80.7764 15.298 80.9926 15.2311C81.2145 15.1627 81.4441 15.128 81.6789 15.1301C82.0101 15.1332 82.3419 15.1275 82.6737 15.1275C85.9552 15.1264 89.2376 15.1264 92.5199 15.1244C92.901 15.1244 93.282 15.1218 93.663 15.1093C94.3742 15.0866 95.0352 14.8838 95.6329 14.5013C96.4582 13.9731 97.0406 13.2531 97.3133 12.3003C97.8223 10.5212 96.9461 8.3466 94.9494 7.61109C94.4767 7.43686 93.9844 7.37883 93.4856 7.37367C92.6894 7.36538 91.8939 7.3648 91.0991 7.36429C87.8167 7.36276 84.5351 7.36276 81.2528 7.36175C81.0869 7.36175 80.9211 7.36276 80.7557 7.35913C80.6733 7.3576 80.5893 7.35346 80.5084 7.3379C79.8775 7.21966 79.5645 6.5717 79.8558 5.9984C79.9678 5.77809 80.1446 5.63502 80.3773 5.57074C80.5198 5.53186 80.6706 5.51735 80.8184 5.50698C80.9667 5.49609 81.1165 5.50283 81.2657 5.50283C83.3211 5.50283 85.3764 5.50283 87.4321 5.50283V5.49713L87.4313 5.49609Z" fill="white"/>
<path d="M115.674 16.5726C115.674 13.6898 115.676 10.8067 115.673 7.92396C115.673 7.2957 115.749 7.36209 115.125 7.36209C112.69 7.36209 110.254 7.36361 107.819 7.36412C107.653 7.36412 107.487 7.36776 107.322 7.35634C106.91 7.32835 106.572 7.08475 106.454 6.598C106.346 6.1558 106.642 5.67216 107.087 5.56071C107.23 5.52494 107.382 5.50939 107.529 5.50421C107.777 5.49539 108.026 5.50317 108.275 5.50317C113.676 5.50317 119.077 5.50317 124.478 5.50368C124.743 5.50368 125.007 5.50265 125.272 5.53945C125.664 5.59389 125.952 5.823 125.939 6.3139C125.936 6.46268 125.934 6.61356 125.907 6.7587C125.855 7.02302 125.699 7.20029 125.43 7.27599C125.27 7.32166 125.107 7.34856 124.942 7.34907C124.61 7.35016 124.278 7.3522 123.947 7.35271C121.976 7.35583 120.004 7.35845 118.032 7.3626C117.901 7.3626 117.768 7.36987 117.637 7.38179C117.613 7.38383 117.581 7.42113 117.571 7.44862C117.556 7.49479 117.552 7.54606 117.549 7.59536C117.541 7.87684 117.53 8.15832 117.53 8.43973C117.53 13.891 117.532 19.3417 117.533 24.7929C117.533 25.091 117.543 25.3901 117.478 25.684C117.453 25.796 117.421 25.9085 117.376 26.0142C117.2 26.43 116.766 26.5569 116.438 26.5082C116.035 26.4486 115.785 26.2635 115.689 25.7675C115.674 25.6866 115.672 25.6026 115.67 25.5202C115.665 25.3715 115.662 25.2221 115.662 25.0728C115.661 24.725 115.661 24.3771 115.661 24.0288C115.661 21.5437 115.661 19.0581 115.661 16.5731H115.675L115.674 16.5726Z" fill="white"/>
<path d="M101.945 15.9999C101.945 14.4925 101.945 12.9846 101.945 11.4771C101.945 9.95314 101.945 8.42859 101.945 6.90455C101.945 6.72262 101.938 6.53858 101.961 6.3587C102.01 5.96422 102.226 5.69466 102.6 5.54641C102.981 5.39556 103.401 5.57336 103.581 5.90772C103.651 6.03679 103.702 6.18038 103.737 6.32345C103.785 6.51577 103.809 6.71324 103.807 6.91386C103.802 7.26173 103.809 7.60953 103.809 7.95791C103.808 13.1769 103.807 18.3959 103.805 23.6149C103.805 24.0125 103.798 24.4101 103.803 24.8076C103.806 25.0907 103.772 25.3701 103.731 25.6484C103.712 25.7786 103.676 25.9087 103.63 26.0316C103.541 26.2632 103.37 26.4032 103.13 26.4726C102.876 26.5457 102.635 26.5069 102.401 26.4151C102.242 26.353 102.118 26.2357 102.056 26.075C102.008 25.9532 101.976 25.8221 101.957 25.6925C101.939 25.5619 101.942 25.4282 101.942 25.2955C101.941 22.1971 101.941 19.0988 101.941 16.001H101.945V15.9999Z" fill="white"/>
</svg>
